<svg width="30" height="30" viewBox="0 0 30 30" fill="none" xmlns="http://www.w3.org/2000/svg">
<path fill-rule="evenodd" clip-rule="evenodd" d="M15 2.5C8.09375 2.5 2.5 8.09375 2.5 15C2.49783 17.6243 3.32247 20.1825 4.85683 22.3115C6.39119 24.4405 8.55727 26.032 11.0475 26.86C11.6725 26.9688 11.9063 26.5937 11.9063 26.265C11.9063 25.9687 11.89 24.985 11.89 23.9375C8.75 24.5162 7.9375 23.1725 7.6875 22.4688C7.54625 22.1088 6.9375 21 6.40625 20.7025C5.96875 20.4688 5.34375 19.89 6.39 19.875C7.375 19.8587 8.0775 20.7812 8.3125 21.1562C9.4375 23.0462 11.235 22.515 11.9525 22.1875C12.0625 21.375 12.39 20.8288 12.75 20.5163C9.96875 20.2038 7.0625 19.125 7.0625 14.3438C7.0625 12.9838 7.54625 11.86 8.34375 10.985C8.21875 10.6725 7.78125 9.39125 8.46875 7.6725C8.46875 7.6725 9.515 7.34375 11.9063 8.9525C12.924 8.6708 13.9753 8.52908 15.0313 8.53125C16.0938 8.53125 17.1563 8.67125 18.1563 8.9525C20.5463 7.3275 21.5938 7.6725 21.5938 7.6725C22.2813 9.39125 21.8438 10.6725 21.7188 10.985C22.515 11.86 23 12.9688 23 14.3438C23 19.1413 20.0788 20.2038 17.2975 20.5163C17.75 20.9063 18.1413 21.6563 18.1413 22.8288C18.1413 24.5 18.125 25.8438 18.125 26.2663C18.125 26.5938 18.36 26.9837 18.985 26.8587C21.4659 26.0203 23.6216 24.4254 25.1489 22.2983C26.6763 20.1711 27.4985 17.6187 27.5 15C27.5 8.09375 21.9063 2.5 15 2.5Z" fill="white"/>
</svg>
