<svg width="30" height="30" viewBox="0 0 30 30" fill="none" xmlns="http://www.w3.org/2000/svg">
<path d="M12.3537 25.3288C21.7875 25.3288 26.9487 17.505 26.9487 10.7325C26.9504 10.5125 26.9471 10.2925 26.9388 10.0725C27.9432 9.34335 28.8103 8.4419 29.5 7.41C28.5622 7.82472 27.568 8.09811 26.55 8.22125C27.6225 7.57903 28.4255 6.56947 28.81 5.38C27.8015 5.97724 26.698 6.39708 25.5475 6.62125C25.0683 6.10971 24.4893 5.7019 23.8462 5.42304C23.2031 5.14418 22.5097 5.0002 21.8088 5C20.4479 5.00132 19.1432 5.54249 18.181 6.50474C17.2187 7.46698 16.6776 8.77168 16.6763 10.1325C16.6763 10.5325 16.7263 10.9225 16.8063 11.3025C14.7661 11.2004 12.7702 10.6701 10.9483 9.74626C9.12637 8.82239 7.51922 7.52555 6.23125 5.94C5.5766 7.07069 5.37676 8.40813 5.67229 9.6808C5.96783 10.9535 6.73658 12.066 7.8225 12.7925C7.00884 12.7644 6.21322 12.5451 5.5 12.1525V12.2225C5.50039 13.4068 5.90995 14.5546 6.65936 15.4717C7.40876 16.3887 8.452 17.0187 9.6125 17.255C9.17282 17.3763 8.7186 17.4369 8.2625 17.435C7.93167 17.435 7.61083 17.405 7.3 17.345C7.62639 18.3651 8.26419 19.2574 9.12379 19.8964C9.98339 20.5353 11.0216 20.889 12.0925 20.9075C10.2757 22.3358 8.03097 23.1107 5.72 23.1075C5.31 23.1075 4.9 23.0875 4.5 23.0375C6.84577 24.5348 9.57087 25.3298 12.3537 25.3288Z" fill="white"/>
</svg>
